<svg xmlns="http://www.w3.org/2000/svg" width="24" height="24" viewBox="0 0 24 24" fill="none" stroke="currentColor" stroke-width="1" stroke-linecap="round" stroke-linejoin="round">
    <defs>
        <linearGradient id="bg-gradient" x1="0%" y1="0%" x2="100%" y2="100%">
            <stop offset="0%" style="stop-color:#15aabf; stop-opacity:1" />
            <stop offset="100%" style="stop-color:#4c6ef5; stop-opacity:1" />
        </linearGradient>
    </defs>
    <path stroke="url(#bg-gradient)" d="M8.56 3.69a9 9 0 0 0 -2.92 1.95"/>
    <path stroke="url(#bg-gradient)" d="M3.69 8.56a9 9 0 0 0 -.69 3.44"/>
    <path stroke="url(#bg-gradient)" d="M3.69 15.44a9 9 0 0 0 1.95 2.92"/>
    <path stroke="url(#bg-gradient)" d="M8.56 20.31a9 9 0 0 0 3.44 .69"/>
    <path stroke="url(#bg-gradient)" d="M15.44 20.31a9 9 0 0 0 2.92 -1.95"/>
    <path stroke="url(#bg-gradient)" d="M20.31 15.44a9 9 0 0 0 .69 -3.44"/>
    <path stroke="url(#bg-gradient)" d="M20.31 8.56a9 9 0 0 0 -1.95 -2.92"/>
    <path stroke="url(#bg-gradient)" d="M15.44 3.69a9 9 0 0 0 -3.44 -.69"/>
    <path stroke="#4c6ef5" d="M9 12h6"/>
    <path stroke="#4c6ef5" d="M12 9v6"/>
</svg>
